<?xml version="1.0" encoding="UTF-8" standalone="no"?>
<!DOCTYPE svg PUBLIC "-//W3C//DTD SVG 1.1//EN" "http://www.w3.org/Graphics/SVG/1.1/DTD/svg11.dtd">
<svg version="1.1" xmlns="http://www.w3.org/2000/svg" xmlns:xlink="http://www.w3.org/1999/xlink" preserveAspectRatio="xMidYMid meet" viewBox="0 0 640 640" width="640" height="640"><defs><path d="M61.05 294.61L579.54 294.61L579.54 336.75L61.05 336.75L61.05 294.61Z" id="g6XqgP39by"></path><path d="M288.64 358.25L364.02 358.25L364.02 395.05L288.64 395.05L288.64 358.25Z" id="bQvW3DtkL"></path><path d="M288.04 417.82L363.42 417.82L363.42 454.62L288.04 454.62L288.04 417.82Z" id="a4nmNUiYGl"></path><path d="M288.04 475.17L363.42 475.17L363.42 546.34L288.04 546.34L288.04 475.17Z" id="e1YSSwrvoX"></path><path d="M443.05 439.09L496.65 488.58L352.27 621.93L352.27 621.93L352.26 621.93L351.21 622.87L350.12 623.75L349 624.58L347.85 625.36L346.67 626.09L345.46 626.77L344.23 627.4L342.98 627.98L341.7 628.51L340.41 628.99L339.09 629.42L337.76 629.8L336.41 630.13L335.05 630.41L333.68 630.64L332.29 630.82L330.9 630.95L329.5 631.03L328.1 631.06L326.69 631.04L325.29 630.97L323.88 630.86L322.47 630.69L321.07 630.47L319.67 630.21L318.27 629.89L316.89 629.53L315.51 629.11L314.15 628.65L312.8 628.14L311.47 627.58L310.15 626.97L308.85 626.31L307.57 625.6L306.31 624.84L305.08 624.04L303.87 623.18L302.68 622.28L301.53 621.33L300.4 620.33L300.22 620.15L156 486.98L209.6 437.49L327.21 546.08L443.05 439.09Z" id="d1mukOCSpw"></path><path d="M290.09 311.69L365.09 311.69L365.09 102.1L290.09 102.1L290.09 311.69Z" id="aBUueSctV"></path><path d="M330.9 16.97L332.29 17.1L333.68 17.28L335.05 17.51L336.41 17.79L337.76 18.12L339.09 18.5L340.41 18.93L341.7 19.41L342.98 19.94L344.23 20.52L345.46 21.15L346.67 21.83L347.85 22.56L349 23.34L350.12 24.17L351.21 25.06L352.26 25.99L352.27 25.99L352.27 25.99L496.65 159.34L443.05 208.83L327.21 101.84L209.6 210.44L156 160.94L300.22 27.78L300.4 27.59L301.53 26.59L302.68 25.64L303.87 24.74L305.08 23.89L306.31 23.08L307.57 22.32L308.85 21.62L310.15 20.96L311.47 20.35L312.8 19.79L314.15 19.27L315.51 18.81L316.89 18.4L318.27 18.03L319.67 17.72L321.07 17.45L322.47 17.23L323.88 17.07L325.29 16.95L326.69 16.88L328.1 16.86L329.5 16.89L330.9 16.97Z" id="l4htPTmmEf"></path></defs><g><g><g><use xlink:href="#g6XqgP39by" opacity="1" fill="#c7c59f" fill-opacity="1"></use></g><g><use xlink:href="#bQvW3DtkL" opacity="1" fill="#c7c59f" fill-opacity="1"></use></g><g><use xlink:href="#a4nmNUiYGl" opacity="1" fill="#c7c59f" fill-opacity="1"></use></g><g><use xlink:href="#e1YSSwrvoX" opacity="1" fill="#c7c59f" fill-opacity="1"></use></g><g><use xlink:href="#d1mukOCSpw" opacity="1" fill="#c7c59f" fill-opacity="1"></use></g><path></path><g><use xlink:href="#aBUueSctV" opacity="1" fill="#c7c59f" fill-opacity="1"></use></g><g><use xlink:href="#l4htPTmmEf" opacity="1" fill="#c7c59f" fill-opacity="1"></use></g></g></g></svg>