<?xml version="1.0" encoding="UTF-8" standalone="no"?>
<!DOCTYPE svg PUBLIC "-//W3C//DTD SVG 1.1//EN" "http://www.w3.org/Graphics/SVG/1.1/DTD/svg11.dtd">
<svg version="1.1" xmlns="http://www.w3.org/2000/svg" xmlns:xlink="http://www.w3.org/1999/xlink" preserveAspectRatio="xMidYMid meet" viewBox="0 0 640 640" width="640" height="640"><defs><path d="M190 120C190 158.64 158.64 190 120 190C81.37 190 50 158.64 50 120C50 81.37 81.37 50 120 50C158.64 50 190 81.37 190 120Z" id="bb3j4PelY"></path><path d="M190 520C190 558.63 158.64 590 120 590C81.37 590 50 558.63 50 520C50 481.36 81.37 450 120 450C158.64 450 190 481.36 190 520Z" id="b35ufFuXJu"></path><path d="M590 520C590 558.63 558.64 590 520 590C481.37 590 450 558.63 450 520C450 481.36 481.37 450 520 450C558.64 450 590 481.36 590 520Z" id="g1bYmZ5rxd"></path><path d="M590 120C590 158.64 558.64 190 520 190C481.37 190 450 158.64 450 120C450 81.37 481.37 50 520 50C558.64 50 590 81.37 590 120Z" id="a1WnwOQjcC"></path><path d="M169.5 70.5L569.5 470.5L470.5 569.5L70.5 169.5L169.5 70.5Z" id="bkwmyYLA7"></path><path d="M70.5 470.5L470.5 70.5L569.5 169.5L169.5 569.5L70.5 470.5Z" id="d6GMf8IHp"></path></defs><g><g><g><use xlink:href="#bb3j4PelY" opacity="1" fill="#c7c59f" fill-opacity="1"></use></g><g><use xlink:href="#b35ufFuXJu" opacity="1" fill="#c7c59f" fill-opacity="1"></use></g><g><use xlink:href="#g1bYmZ5rxd" opacity="1" fill="#c7c59f" fill-opacity="1"></use></g><g><use xlink:href="#a1WnwOQjcC" opacity="1" fill="#c7c59f" fill-opacity="1"></use></g><g><use xlink:href="#bkwmyYLA7" opacity="1" fill="#c7c59f" fill-opacity="1"></use></g><g><use xlink:href="#d6GMf8IHp" opacity="1" fill="#c7c59f" fill-opacity="1"></use></g></g></g></svg>