<?xml version="1.0" encoding="utf-8"?>
<!-- Generator: Adobe Illustrator 16.0.0, SVG Export Plug-In . SVG Version: 6.00 Build 0)  -->
<!DOCTYPE svg PUBLIC "-//W3C//DTD SVG 1.1//EN" "http://www.w3.org/Graphics/SVG/1.1/DTD/svg11.dtd">
<svg version="1.1" id="Layer_1" xmlns="http://www.w3.org/2000/svg" xmlns:xlink="http://www.w3.org/1999/xlink" x="0px" y="0px"
	 width="512px" height="512px" viewBox="0 0 512 512" enable-background="new 0 0 512 512" xml:space="preserve" fill="#c7c59f">
<path d="M77.641,261.667l107.507-107.508c10.739-10.739,10.739-28.151,0-38.891c-10.739-10.74-28.151-10.739-38.891,0
	L19.686,241.841c-5.469,5.468-8.146,12.667-8.045,19.833c-0.097,7.162,2.581,14.354,8.045,19.819l126.572,126.571
	c10.738,10.739,28.151,10.739,38.891,0s10.739-28.151,0-38.891L77.641,261.667z"/>
<path d="M492.316,236.174L365.743,109.602c-10.739-10.739-28.151-10.74-38.891,0c-10.739,10.739-10.739,28.152,0,38.891L434.361,256
	L326.853,363.508c-10.739,10.738-10.739,28.15,0,38.891c10.739,10.738,28.152,10.738,38.891,0l126.572-126.572
	c5.467-5.467,8.144-12.662,8.045-19.826C500.459,248.836,497.782,241.64,492.316,236.174z"/>
</svg>
