<?xml version="1.0" encoding="UTF-8" standalone="no"?>
<!DOCTYPE svg PUBLIC "-//W3C//DTD SVG 1.1//EN" "http://www.w3.org/Graphics/SVG/1.1/DTD/svg11.dtd">
<svg version="1.1" xmlns="http://www.w3.org/2000/svg" xmlns:xlink="http://www.w3.org/1999/xlink" preserveAspectRatio="xMidYMid meet" viewBox="0 0 640 640" width="640" height="640"><defs><path d="M150 332.5C150 373.89 116.39 407.5 75 407.5C33.61 407.5 0 373.89 0 332.5C0 291.11 33.61 257.5 75 257.5C116.39 257.5 150 291.11 150 332.5Z" id="f1eC4T357M"></path><path d="M640 332.5C640 373.89 606.39 407.5 565 407.5C523.61 407.5 490 373.89 490 332.5C490 291.11 523.61 257.5 565 257.5C606.39 257.5 640 291.11 640 332.5Z" id="b1fBBd6B5B"></path><path d="M395 332.5C395 373.89 361.39 407.5 320 407.5C278.61 407.5 245 373.89 245 332.5C245 291.11 278.61 257.5 320 257.5C361.39 257.5 395 291.11 395 332.5Z" id="a1GH15a8c5"></path></defs><g><g><g><use xlink:href="#f1eC4T357M" opacity="1" fill="#c7c59f" fill-opacity="1"></use></g><g><use xlink:href="#b1fBBd6B5B" opacity="1" fill="#c7c59f" fill-opacity="1"></use></g><g><use xlink:href="#a1GH15a8c5" opacity="1" fill="#c7c59f" fill-opacity="1"></use></g></g></g></svg>